<?xml version="1.0" encoding="UTF-8"?>
<svg xmlns="http://www.w3.org/2000/svg" xmlns:xlink="http://www.w3.org/1999/xlink" viewBox="0 0 77 77" width="77px" height="77px">
<g id="surface1334084">
<path style=" stroke:none;fill-rule:nonzero;fill:rgb(0%,66.274512%,93.333334%);fill-opacity:1;" d="M 57.269531 55.664062 C 44.917969 55.664062 36.09375 41.386719 35.773438 40.746094 L 34.808594 39.140625 L 35.773438 37.539062 C 36.09375 36.734375 44.917969 22.457031 57.269531 22.457031 C 66.414062 22.457031 73.792969 29.835938 73.792969 38.980469 C 73.792969 48.125 66.414062 55.664062 57.269531 55.664062 Z M 42.351562 38.980469 C 44.757812 42.191406 50.53125 49.085938 57.109375 49.085938 C 62.722656 49.085938 67.214844 44.597656 67.214844 38.980469 C 67.214844 33.367188 62.722656 28.875 57.109375 28.875 C 50.53125 28.875 44.757812 35.773438 42.351562 38.980469 Z M 42.351562 38.980469 "/>
<path style=" stroke:none;fill-rule:nonzero;fill:rgb(0%,66.274512%,93.333334%);fill-opacity:1;" d="M 19.730469 55.664062 C 10.585938 55.664062 3.207031 48.125 3.207031 38.980469 C 3.207031 29.835938 10.585938 22.457031 19.730469 22.457031 C 32.402344 22.457031 40.90625 36.734375 41.226562 37.378906 L 42.191406 38.980469 L 41.226562 40.585938 C 40.90625 41.226562 32.082031 55.664062 19.730469 55.664062 Z M 19.730469 28.875 C 14.117188 28.875 9.625 33.367188 9.625 38.980469 C 9.625 44.597656 14.117188 49.085938 19.730469 49.085938 C 26.46875 49.085938 32.242188 42.191406 34.648438 38.980469 C 32.402344 35.773438 26.628906 28.875 19.730469 28.875 Z M 19.730469 28.875 "/>
<path style=" stroke:none;fill-rule:nonzero;fill:rgb(0%,66.274512%,93.333334%);fill-opacity:1;" d="M 16.042969 36.894531 L 25.667969 36.894531 L 25.667969 40.105469 L 16.042969 40.105469 Z M 51.332031 36.894531 L 60.957031 36.894531 L 60.957031 40.105469 L 51.332031 40.105469 Z M 51.332031 36.894531 "/>
<path style=" stroke:none;fill-rule:nonzero;fill:rgb(0%,66.274512%,93.333334%);fill-opacity:1;" d="M 54.542969 33.6875 L 57.75 33.6875 L 57.75 43.3125 L 54.542969 43.3125 Z M 54.542969 33.6875 "/>
</g>
</svg>
