<?xml version="1.0" encoding="UTF-8"?>
<svg xmlns="http://www.w3.org/2000/svg" xmlns:xlink="http://www.w3.org/1999/xlink" viewBox="0 0 77 77" width="77px" height="77px">
<g id="surface1334132">
<path style=" stroke:none;fill-rule:evenodd;fill:rgb(1.176471%,38.431373%,69.803923%);fill-opacity:1;" d="M 36.738281 5.269531 C 37.828125 4.660156 39.171875 4.660156 40.257812 5.269531 C 45.640625 8.292969 61.835938 17.382812 67.21875 20.40625 C 68.308594 21.015625 68.980469 22.144531 68.980469 23.367188 C 68.980469 29.40625 68.980469 47.589844 68.980469 53.632812 C 68.980469 54.855469 68.308594 55.984375 67.21875 56.59375 C 61.835938 59.617188 45.640625 68.707031 40.257812 71.730469 C 39.167969 72.339844 37.828125 72.339844 36.738281 71.730469 C 31.359375 68.707031 15.164062 59.617188 9.777344 56.59375 C 8.691406 55.984375 8.019531 54.855469 8.019531 53.632812 C 8.019531 47.59375 8.019531 29.410156 8.019531 23.367188 C 8.019531 22.144531 8.691406 21.015625 9.78125 20.40625 C 15.160156 17.382812 31.359375 8.292969 36.738281 5.269531 Z M 36.738281 5.269531 "/>
<path style=" stroke:none;fill-rule:evenodd;fill:rgb(2.352941%,54.509807%,85.490197%);fill-opacity:1;" d="M 8.507812 55.191406 C 8.082031 54.617188 8.019531 54.078125 8.019531 53.347656 C 8.019531 47.339844 8.019531 29.261719 8.019531 23.253906 C 8.019531 22.039062 8.691406 20.914062 9.777344 20.308594 C 15.136719 17.304688 31.28125 8.265625 36.640625 5.261719 C 37.726562 4.652344 39.199219 4.667969 40.285156 5.273438 C 45.648438 8.277344 61.734375 17.238281 67.097656 20.242188 C 67.53125 20.488281 67.859375 20.78125 68.15625 21.167969 Z M 8.507812 55.191406 "/>
<path style=" stroke:none;fill-rule:evenodd;fill:rgb(100%,100%,100%);fill-opacity:1;" d="M 38.5 16.042969 C 50.894531 16.042969 60.957031 26.105469 60.957031 38.5 C 60.957031 50.894531 50.894531 60.957031 38.5 60.957031 C 26.105469 60.957031 16.042969 50.894531 16.042969 38.5 C 16.042969 26.105469 26.105469 16.042969 38.5 16.042969 Z M 38.5 27.269531 C 44.695312 27.269531 49.730469 32.300781 49.730469 38.5 C 49.730469 44.695312 44.695312 49.730469 38.5 49.730469 C 32.304688 49.730469 27.269531 44.695312 27.269531 38.5 C 27.269531 32.300781 32.300781 27.269531 38.5 27.269531 Z M 38.5 27.269531 "/>
<path style=" stroke:none;fill-rule:evenodd;fill:rgb(0.392157%,47.058824%,77.254903%);fill-opacity:1;" d="M 68.152344 21.183594 C 68.980469 21.957031 68.964844 23.125 68.964844 24.042969 C 68.964844 30.132812 68.914062 47.449219 68.980469 53.535156 C 68.984375 54.171875 68.777344 54.839844 68.460938 55.34375 L 37.847656 38.5 Z M 68.152344 21.183594 "/>
<path style=" stroke:none;fill-rule:evenodd;fill:rgb(100%,100%,100%);fill-opacity:1;" d="M 49.730469 33.6875 L 52.9375 33.6875 L 52.9375 43.3125 L 49.730469 43.3125 Z M 60.957031 33.6875 L 64.167969 33.6875 L 64.167969 43.3125 L 60.957031 43.3125 Z M 60.957031 33.6875 "/>
<path style=" stroke:none;fill-rule:evenodd;fill:rgb(100%,100%,100%);fill-opacity:1;" d="M 46.519531 36.894531 L 56.144531 36.894531 L 56.144531 40.105469 L 46.519531 40.105469 Z M 57.75 36.894531 L 67.375 36.894531 L 67.375 40.105469 L 57.75 40.105469 Z M 57.75 36.894531 "/>
</g>
</svg>
