<?xml version="1.0" encoding="UTF-8"?>
<svg xmlns="http://www.w3.org/2000/svg" xmlns:xlink="http://www.w3.org/1999/xlink" viewBox="0 0 77 77" width="77px" height="77px">
<g id="surface1338568">
<path style=" stroke:none;fill-rule:nonzero;fill:rgb(0.784314%,46.666667%,74.117649%);fill-opacity:1;" d="M 65.769531 8.019531 L 11.230469 8.019531 L 16.042969 62.5625 L 38.5 68.980469 L 60.957031 62.5625 Z M 65.769531 8.019531 "/>
<path style=" stroke:none;fill-rule:nonzero;fill:rgb(1.176471%,60.784316%,89.803922%);fill-opacity:1;" d="M 38.5 12.832031 L 38.5 64.007812 L 56.464844 58.871094 L 60.476562 12.832031 Z M 38.5 12.832031 "/>
<path style=" stroke:none;fill-rule:nonzero;fill:rgb(100%,100%,100%);fill-opacity:1;" d="M 53.097656 20.855469 L 38.5 20.855469 L 38.5 27.269531 L 46.359375 27.269531 L 45.878906 33.6875 L 38.5 33.6875 L 38.5 40.105469 L 45.558594 40.105469 L 45.078125 47.324219 L 38.5 49.570312 L 38.5 56.304688 L 51.171875 52.136719 L 52.296875 33.6875 Z M 53.097656 20.855469 "/>
<path style=" stroke:none;fill-rule:nonzero;fill:rgb(93.333334%,93.333334%,93.333334%);fill-opacity:1;" d="M 38.5 20.855469 L 38.5 27.269531 L 24.222656 27.269531 L 23.742188 20.855469 Z M 31.121094 33.6875 L 31.441406 40.105469 L 38.5 40.105469 L 38.5 33.6875 Z M 31.761719 43.3125 L 25.347656 43.3125 L 25.828125 52.136719 L 38.5 56.304688 L 38.5 49.570312 L 31.921875 47.324219 Z M 31.761719 43.3125 "/>
</g>
</svg>
