<?xml version="1.0" encoding="UTF-8"?>
<svg xmlns="http://www.w3.org/2000/svg" xmlns:xlink="http://www.w3.org/1999/xlink" viewBox="0 0 77 77" width="77px" height="77px">
<g id="surface1336259">
<path style=" stroke:none;fill-rule:nonzero;fill:rgb(95.686275%,26.274511%,21.176471%);fill-opacity:1;" d="M 37.9375 39.941406 C 36.335938 37.359375 35.175781 35.21875 33.566406 31.191406 C 30.847656 24.382812 50.113281 18.234375 42.300781 6.414062 C 45.6875 14.578125 30.148438 19.625 28.703125 26.425781 C 27.382812 32.675781 37.929688 39.941406 37.9375 39.941406 Z M 37.9375 39.941406 "/>
<path style=" stroke:none;fill-rule:nonzero;fill:rgb(95.686275%,26.274511%,21.176471%);fill-opacity:1;" d="M 38.304688 27.703125 C 37.996094 31.738281 41.878906 33.890625 41.992188 36.839844 C 42.082031 39.238281 39.671875 41.238281 39.671875 41.238281 C 39.671875 41.238281 44.046875 40.378906 45.414062 36.71875 C 46.929688 32.65625 42.46875 29.871094 42.929688 26.617188 C 43.355469 23.507812 52.605469 17.722656 52.605469 17.722656 C 52.605469 17.722656 39 18.625 38.304688 27.703125 Z M 38.304688 27.703125 "/>
<path style=" stroke:none;fill-rule:nonzero;fill:rgb(8.235294%,39.607844%,75.294119%);fill-opacity:1;" d="M 51.46875 40.191406 C 54.28125 39.558594 56.65625 41.351562 56.65625 43.417969 C 56.65625 48.070312 50.203125 52.46875 50.203125 52.46875 C 50.203125 52.46875 60.191406 51.277344 60.191406 43.636719 C 60.191406 38.585938 55.285156 37.324219 51.46875 40.191406 Z M 46.726562 43.945312 C 46.726562 43.945312 49.839844 41.726562 50.671875 40.894531 C 43.03125 42.515625 25.585938 42.734375 25.585938 41.328125 C 25.585938 40.027344 31.210938 38.699219 31.210938 38.699219 C 31.210938 38.699219 18.742188 38.519531 18.742188 42.199219 C 18.742188 46.03125 35.0625 46.304688 46.726562 43.945312 Z M 46.726562 43.945312 "/>
<path style=" stroke:none;fill-rule:nonzero;fill:rgb(8.235294%,39.607844%,75.294119%);fill-opacity:1;" d="M 44.8125 47.4375 C 37.578125 49.839844 24.257812 49.074219 28.203125 45.84375 C 26.28125 45.84375 23.433594 47.390625 23.433594 48.875 C 23.433594 51.851562 37.839844 54.152344 48.503906 49.792969 Z M 44.8125 47.4375 "/>
<path style=" stroke:none;fill-rule:nonzero;fill:rgb(8.235294%,39.607844%,75.294119%);fill-opacity:1;" d="M 29.976562 52.519531 C 27.351562 52.519531 25.652344 54.210938 25.652344 55.441406 C 25.652344 59.277344 41.308594 59.664062 47.511719 55.769531 L 43.570312 53.152344 C 38.933594 55.191406 27.292969 55.46875 29.976562 52.519531 Z M 29.976562 52.519531 "/>
<path style=" stroke:none;fill-rule:nonzero;fill:rgb(8.235294%,39.607844%,75.294119%);fill-opacity:1;" d="M 58.199219 58.765625 C 58.199219 57.261719 56.507812 56.554688 55.902344 56.214844 C 59.476562 64.835938 20.101562 64.167969 20.101562 59.078125 C 20.101562 57.921875 23 56.789062 25.679688 57.324219 L 23.402344 55.980469 C 18.0625 55.140625 14.4375 57.488281 14.4375 59.382812 C 14.4375 68.210938 58.199219 67.785156 58.199219 58.765625 Z M 58.199219 58.765625 "/>
<path style=" stroke:none;fill-rule:nonzero;fill:rgb(8.235294%,39.607844%,75.294119%);fill-opacity:1;" d="M 62.5625 61.925781 C 55.910156 68.496094 39.046875 70.890625 22.085938 66.832031 C 39.046875 74.054688 62.480469 69.988281 62.5625 61.925781 Z M 62.5625 61.925781 "/>
</g>
</svg>
